<mxfile host="Electron" agent="Mozilla/5.0 (Macintosh; Intel Mac OS X 10_15_7) AppleWebKit/537.36 (KHTML, like Gecko) draw.io/26.1.1 Chrome/132.0.6834.210 Electron/34.3.3 Safari/537.36" version="26.1.1">
  <diagram name="Page-1" id="TDO5EZD7KUFCheZcEkde">
    <mxGraphModel dx="1114" dy="878" grid="1" gridSize="10" guides="1" tooltips="1" connect="1" arrows="1" fold="1" page="1" pageScale="1" pageWidth="827" pageHeight="1169" math="0" shadow="0">
      <root>
        <mxCell id="0" />
        <mxCell id="1" parent="0" />
        <mxCell id="9bEVTpND5fxztzsIixFs-1" style="edgeStyle=orthogonalEdgeStyle;rounded=0;orthogonalLoop=1;jettySize=auto;html=1;entryX=0.5;entryY=0;entryDx=0;entryDy=0;endArrow=block;endFill=1;" edge="1" parent="1" source="9bEVTpND5fxztzsIixFs-3" target="9bEVTpND5fxztzsIixFs-7">
          <mxGeometry relative="1" as="geometry" />
        </mxCell>
        <mxCell id="9bEVTpND5fxztzsIixFs-3" value="Job&lt;div&gt;CoroutineScope&lt;/div&gt;" style="rounded=0;whiteSpace=wrap;html=1;" vertex="1" parent="1">
          <mxGeometry x="280" y="120" width="100" height="40" as="geometry" />
        </mxCell>
        <mxCell id="9bEVTpND5fxztzsIixFs-4" value="Job&lt;div&gt;runBlocking&lt;/div&gt;" style="rounded=0;whiteSpace=wrap;html=1;" vertex="1" parent="1">
          <mxGeometry x="120" y="120" width="100" height="40" as="geometry" />
        </mxCell>
        <mxCell id="9bEVTpND5fxztzsIixFs-5" style="edgeStyle=orthogonalEdgeStyle;rounded=0;orthogonalLoop=1;jettySize=auto;html=1;entryX=0.5;entryY=0;entryDx=0;entryDy=0;endArrow=block;endFill=1;" edge="1" parent="1" source="9bEVTpND5fxztzsIixFs-7" target="9bEVTpND5fxztzsIixFs-9">
          <mxGeometry relative="1" as="geometry" />
        </mxCell>
        <mxCell id="9bEVTpND5fxztzsIixFs-14" style="edgeStyle=orthogonalEdgeStyle;rounded=0;orthogonalLoop=1;jettySize=auto;html=1;entryX=0.5;entryY=0;entryDx=0;entryDy=0;" edge="1" parent="1" source="9bEVTpND5fxztzsIixFs-7" target="9bEVTpND5fxztzsIixFs-13">
          <mxGeometry relative="1" as="geometry" />
        </mxCell>
        <mxCell id="9bEVTpND5fxztzsIixFs-18" style="edgeStyle=orthogonalEdgeStyle;rounded=0;orthogonalLoop=1;jettySize=auto;html=1;entryX=0;entryY=0.5;entryDx=0;entryDy=0;curved=1;endArrow=none;startFill=0;" edge="1" parent="1" source="9bEVTpND5fxztzsIixFs-7" target="9bEVTpND5fxztzsIixFs-15">
          <mxGeometry relative="1" as="geometry" />
        </mxCell>
        <mxCell id="9bEVTpND5fxztzsIixFs-7" value="launch Job&lt;div&gt;Coroutine1&lt;/div&gt;" style="rounded=0;whiteSpace=wrap;html=1;" vertex="1" parent="1">
          <mxGeometry x="280" y="220" width="100" height="40" as="geometry" />
        </mxCell>
        <mxCell id="9bEVTpND5fxztzsIixFs-20" style="edgeStyle=orthogonalEdgeStyle;rounded=0;orthogonalLoop=1;jettySize=auto;html=1;entryX=0.5;entryY=0;entryDx=0;entryDy=0;curved=1;endArrow=none;startFill=0;" edge="1" parent="1" source="9bEVTpND5fxztzsIixFs-9" target="9bEVTpND5fxztzsIixFs-16">
          <mxGeometry relative="1" as="geometry" />
        </mxCell>
        <mxCell id="9bEVTpND5fxztzsIixFs-9" value="launch Job&lt;div&gt;Coroutine3&lt;/div&gt;" style="rounded=0;whiteSpace=wrap;html=1;" vertex="1" parent="1">
          <mxGeometry x="340" y="330" width="100" height="40" as="geometry" />
        </mxCell>
        <mxCell id="9bEVTpND5fxztzsIixFs-19" style="edgeStyle=orthogonalEdgeStyle;rounded=0;orthogonalLoop=1;jettySize=auto;html=1;entryX=0.5;entryY=0;entryDx=0;entryDy=0;curved=1;endArrow=none;startFill=0;" edge="1" parent="1" source="9bEVTpND5fxztzsIixFs-13" target="9bEVTpND5fxztzsIixFs-17">
          <mxGeometry relative="1" as="geometry" />
        </mxCell>
        <mxCell id="9bEVTpND5fxztzsIixFs-13" value="launch Job&lt;div&gt;Coroutine2&lt;/div&gt;" style="rounded=0;whiteSpace=wrap;html=1;" vertex="1" parent="1">
          <mxGeometry x="220" y="330" width="100" height="40" as="geometry" />
        </mxCell>
        <mxCell id="9bEVTpND5fxztzsIixFs-15" value="CoroutineExceptionHandler&lt;div&gt;exceptionHandler&lt;/div&gt;" style="rounded=1;whiteSpace=wrap;html=1;dashed=1;fillColor=#dae8fc;strokeColor=#6c8ebf;" vertex="1" parent="1">
          <mxGeometry x="440" y="190" width="170" height="50" as="geometry" />
        </mxCell>
        <mxCell id="9bEVTpND5fxztzsIixFs-16" value="CoroutineExceptionHandler&lt;div&gt;exceptionHandler&lt;/div&gt;" style="rounded=1;whiteSpace=wrap;html=1;dashed=1;fillColor=#dae8fc;strokeColor=#6c8ebf;" vertex="1" parent="1">
          <mxGeometry x="414" y="400" width="170" height="50" as="geometry" />
        </mxCell>
        <mxCell id="9bEVTpND5fxztzsIixFs-17" value="CoroutineExceptionHandler&lt;div&gt;exceptionHandler&lt;/div&gt;" style="rounded=1;whiteSpace=wrap;html=1;dashed=1;fillColor=#dae8fc;strokeColor=#6c8ebf;" vertex="1" parent="1">
          <mxGeometry x="230" y="400" width="170" height="50" as="geometry" />
        </mxCell>
      </root>
    </mxGraphModel>
  </diagram>
</mxfile>
